# xmcd
#
# Track frame offsets:
#	150
#	12641
#	26441
#	35178
#	47336
#	58440
#	70513
#	84448
#	94090
#	106904
#	119087
#	131496
#	144315
#	157987
#	171076
#	181152
#	192645
#	205555
#	217473
#	231041
#
# Disc length: 3237 seconds
#
# Revision: 1
# Processed by: cddbd v1.5.1PL2 Copyright (c) Steve Scherf et al.
# Submitted via: audiograbber 1.83.01
#
DISCID=1e0ca314
DTITLE=Various Artist - Country and Western Original Masters - CD 6
DYEAR=1900
DGENRE=Country
TTITLE0=Jimmy Wyble (1946) - Goodbye My Heart (Ray)
TTITLE1=Bob Wills (1946) - Faded Love (Wills - Wills)
TTITLE2=Johnny Bond (1946) - Out On the Open Range (Bond)
TTITLE3=Spade Cooley (1946) - Yodelling Polka (Cooley - DePaul - Soldi)
TTITLE4=Hank Penny (1946) - I'm Gonna Change Things (Penny)
TTITLE5=Merle Travis (1946) - No Vacancy (Travis - Stone)
TTITLE6=Bill Monroe (1946) - Blue Moon of Kentucky (Monroe)
TTITLE7=Gene Autry (1946) - Sioux City Sue (Freedman - Thomas)
TTITLE8=Hank Penny (1946) - Time Will Tell (Penny)
TTITLE9=Merle Travis (1946) - Missouri (Penny - Duncan)
TTITLE10=Hank Williams (1947) - Move It On Over (Williams)
TTITLE11=Red Foley (1947) - Freight Train Boogie (Foley)
TTITLE12=Merle Travis (1947) - Merle's Boogie Woogie (Travis)
TTITLE13=Tex Williams (1947) - Smoke Smoke Smoke (Travis - Williams)
TTITLE14=Johnny Tyler (1947) - Oakie Boogie (Guthrie)
TTITLE15=Chet Atkins (1947) - Canned Heat (Wills - Atkins)
TTITLE16=Ocie Stockard (1947) - Cow Town Boogie (Perkins)
TTITLE17=Billy Hughes (1947) - Cocaine Blues (Arnell)
TTITLE18=Jimmy Wyble (1947) - No More Blues (Ray)
TTITLE19=Jimmie Widener (1947) - That's My Lindy Lou (Hensley - Penny)
EXTD=
EXTT0=
EXTT1=
EXTT2=
EXTT3=
EXTT4=
EXTT5=
EXTT6=
EXTT7=
EXTT8=
EXTT9=
EXTT10=
EXTT11=
EXTT12=
EXTT13=
EXTT14=
EXTT15=
EXTT16=
EXTT17=
EXTT18=
EXTT19=
PLAYORDER=
